<mxfile host="app.diagrams.net" modified="2023-10-15T07:10:31.947Z" agent="Mozilla/5.0 (Macintosh; Intel Mac OS X 10_15_7) AppleWebKit/537.36 (KHTML, like Gecko) Chrome/117.0.0.0 Safari/537.36" version="22.0.4" etag="QHX0DpTXhrEL0TUTWPyl" type="github">
  <diagram name="第 1 页" id="47AB5UtrXyG0AzFFR48y">
    <mxGraphModel>
      <root>
        <mxCell id="0" />
        <mxCell id="1" parent="0" />
      </root>
    </mxGraphModel>
  </diagram>
</mxfile>
